<svg xmlns="http://www.w3.org/2000/svg" version="1.1" xmlns:xlink="http://www.w3.org/1999/xlink" xmlns:svgjs="http://svgjs.dev/svgjs" width="1000" height="1000" viewBox="0 0 1000 1000"><rect width="1000" height="1000" fill="#000000"></rect><g transform="matrix(0.7,0,0,0.7,150.0000000000001,106.25)"><svg viewBox="0 0 320 360" data-background-color="#ffffff" preserveAspectRatio="xMidYMid meet" height="1125" width="1000" xmlns="http://www.w3.org/2000/svg" xmlns:xlink="http://www.w3.org/1999/xlink"><g id="tight-bounds" transform="matrix(1,0,0,1,-5.684341886080802e-14,0)"><svg viewBox="0 0 320 360" height="360" width="320"><g><svg></svg></g><g><svg viewBox="0 0 320 360" height="360" width="320"><g><path xmlns="http://www.w3.org/2000/svg" d="M85.508 32.884c0-1.117 0.558-2.233 1.675-2.233 1.117 0 2.233 0.558 2.234 2.233 0.558 0 1.675 0 2.233-0.558 2.233 0 4.467-0.558 6.141 0 1.675 0.558 2.792 0.558 4.467 1.117 1.675 0.558 2.792 0 3.908-0.559 2.233-0.558 3.908-1.675 6.141-2.233 1.117-0.558 1.675-0.558 2.792-0.558 1.117-0.558 2.233-0.558 3.908-1.117 2.792-0.558 5.583-1.117 7.817-2.233 2.233-1.117 4.467-1.117 6.699-1.675 1.117 0 1.675-0.558 2.792-1.117 0.558 0 0.558-0.558 1.116-1.116 1.117-0.558 1.675-1.117 2.792-0.559 0.558 0.558 1.675 0.558 2.233 0h0.559c3.35 0 6.7-0.558 10.608 0 0.558 0 1.117 0 1.116 0 1.675-1.117 3.908-1.117 6.142-1.116 0.558 0 1.675 0 2.233 0h0.558c2.233 0 4.467 0 6.142 0.558 1.675 0 2.792 0.558 4.466 1.117 1.675 0 2.792 0 4.467 0.558 1.117 0 2.233 0 3.35 0 0.558 0 1.117 0 1.116 0 2.233 0.558 4.467 0.558 6.7 0.558 1.675 0.558 3.35 1.117 5.583 1.117 0.558 0 1.117 0 1.675 0 0.558 0 1.117 0.558 1.675 0.558l0.558 0.559c2.233 0 3.908 1.117 6.142 1.116 0.558 0 1.675 0 2.233 0.559 1.675 1.117 3.908 1.675 6.141 1.675 1.117 0 1.675 0.558 2.234 1.116 1.675 0.558 2.792 1.117 4.466 1.675 1.117 0.558 2.233 0 3.35 0.558 1.675 0.558 3.908 1.117 5.583 2.792 1.117 1.117 2.233 1.117 3.908 2.233 0.558 0 1.117 0.558 1.675 1.117 1.675 1.117 3.35 2.233 5.025 2.791 0.558 0 1.117 0.558 1.675 0.559 1.675 1.117 3.35 2.792 5.583 3.908 1.117 0.558 1.675 1.117 2.792 1.675h0.558c1.675 1.675 3.908 2.792 5.583 4.466 1.675 1.675 2.792 2.792 5.025 3.909 0 0 0 0 0 0.558 0.558 1.117 1.117 1.675 2.233 2.233 1.117 0.558 1.675 1.117 2.234 1.675 1.675 1.117 3.35 2.233 4.466 3.35 0.558 0.558 1.117 1.117 2.233 2.233 0.558 0.558 1.117 1.117 1.675 1.117 2.233 0.558 3.35 2.233 5.025 3.908 1.117 1.117 2.792 2.792 3.908 3.908 0.558 0.558 1.117 1.675 1.675 2.792 1.117 3.35 2.792 6.7 4.467 9.491 0 0 0 0.558 0.558 1.117v0.558c1.117 1.117 1.675 2.792 2.792 3.908 0.558 0.558 0.558 1.117 1.116 1.675 1.117 1.675 1.675 3.908 2.792 5.583 1.675 2.792 2.792 5.583 3.908 8.375v0.558c0.558 1.117 1.117 2.233 1.675 3.908 0 1.117 1.117 2.233 1.675 3.909 0.558 2.792 2.233 5.583 2.791 8.933 0 0.558 0.558 1.117 0.559 2.233 0.558 1.675 1.117 3.35 1.675 5.025 0 0.558 0.558 1.117 1.116 1.675 1.117 1.117 1.117 2.233 1.117 3.35-0.558 2.233 0 4.467 0.558 6.699 0 0.558 0 1.117 0 2.234 0.558 2.233 1.117 5.025 1.117 7.258 0 0.558 0 1.675 0 2.233 0 1.675 0.558 3.35 1.675 5.025 0 0.558 0.558 0.558 0.558 0.558 0.558 0.558 1.117 1.675 1.675 2.233 0.558 0.558 0.558 0.558 1.117 1.117 1.117 1.117 1.675 2.233 1.675 3.908 0 0.558-0.558 1.675-0.559 2.233 0 0.558 0 1.675 0.559 2.234 0.558 0.558 0.558 1.117 0.558 1.675 0 0.558-0.558 1.117-1.117 1.116v0c-0.558 1.675-2.792 2.233-3.35 3.908-0.558 2.233-1.117 4.467-1.674 6.7-0.558 1.675-0.558 2.792-0.559 4.467 0 1.675-0.558 2.792-0.558 4.466-0.558 2.233-1.117 4.467-1.675 6.7 0 1.117-0.558 2.233-0.558 3.35 0.558 0.558 1.117 1.117 1.675 1.116 1.117 1.117 2.233 2.233 3.349 3.35 0.558 0.558 0.558 1.117 0 1.117-0.558 0.558-1.117 0.558-1.674 0.558-0.558-0.558-1.675-1.117-2.234-1.116-0.558-0.558-1.675-1.117-2.791-0.559 0 1.117-0.558 2.233-0.559 2.792-0.558 1.117-1.117 2.792-1.116 3.908-0.558 2.233-1.675 3.908-2.233 6.142-1.117 2.792-2.233 5.025-3.35 7.258-0.558 1.117-1.117 2.233-1.675 3.35v0c0 1.675-1.675 3.35-2.234 5.024-1.117 2.233-2.233 4.467-3.349 7.258-0.558 1.117-1.117 2.233-1.675 2.792-1.117 2.792-2.233 5.025-3.909 7.258-1.117 1.675-2.233 2.792-3.349 3.35-1.117 1.117-2.233 2.233-3.35 3.35-0.558 0.558-1.117 1.117-1.675 1.675-0.558 0.558-0.558 0.558-1.117 1.116-1.117 1.675-2.792 2.792-3.908 4.467-1.117 1.117-1.675 2.233-3.35 3.35-1.117 1.117-2.233 2.792-3.908 3.35-0.558 0.558-1.117 1.675-1.675 2.233-0.558 0.558-1.117 1.675-1.675 2.233 0 1.117 0.558 2.233 0.558 2.792 0 1.675-1.675 2.233-2.791 1.116-1.675-1.117-1.675-1.117-3.35 0-1.675 1.117-3.35 2.792-5.583 3.35-0.558 0-0.558 0.558-1.117 0.559-1.117 0.558-1.675 1.675-2.792 2.233-1.117 1.117-2.792 1.675-3.908 2.791-0.558 0.558-1.117 0.558-1.675 1.117-1.675 1.117-3.35 1.675-5.024 3.35-0.558 0.558-1.117 0.558-1.675 1.117 0 0.558 0 0.558 0 1.116 0 1.117-1.117 2.233-2.792 1.675-1.675-0.558-2.792 0-4.466 0-1.675 0.558-3.35 1.675-5.025 2.233-0.558 0-1.117 0.558-1.675 1.117-1.675 1.117-3.35 1.675-5.025 2.233-1.117 0-2.233 1.117-3.35 1.117-0.558 0-1.117 0.558-1.675 0.558h-0.558c-2.233 1.675-4.467 2.792-6.7 4.467-0.558 0-0.558 0.558-1.117 1.116-0.558 1.117-1.117 1.675-2.233 1.675-2.792 0-3.908 2.233-3.35 4.467 0 0.558 0.558 1.117 0.559 1.675 0.558 1.117 0 2.233-0.559 2.791-0.558 0.558-2.233 0.558-2.791-0.558-1.117-1.117-1.675-2.233-2.234-3.908-0.558-1.117-1.675-2.233-2.791-2.792-1.117-0.558-2.233-0.558-3.35 0-0.558 0-0.558 0.558-1.117 0.558-1.117 1.117-2.792 1.675-4.466 1.117-0.558 0-1.675 0-1.675 0.558-0.558 0.558-0.558 1.675 0 2.234 1.117 1.117 0.558 2.233 0.558 3.908 0 2.233-1.675 3.35-3.908 2.233-0.558-0.558-1.117-0.558-1.675-1.117-0.558 0-0.558-0.558-0.558-1.116-0.558-0.558-0.558-1.675-1.117-2.792-1.117 0.558-2.233 0.558-3.35 1.117-0.558 0-1.117 0.558-1.675 0.558-1.675 0-2.233 0-2.791-1.675-0.558-1.675-1.675-1.675-2.792-2.233-2.233-0.558-5.025-0.558-7.258-1.675h-0.558c-2.233-1.675-4.467-1.675-7.258-1.675-1.675 0-3.35 0.558-5.025 0.558-1.675 0-2.792 0.558-3.908 1.675-0.558 0.558-1.117 1.117-1.675 1.117-0.558-0.558-0.558-1.117-1.117-1.675v-0.558c0-0.558-0.558-1.117-1.116-0.559-1.117 0.558-2.233-0.558-3.35-1.116-0.558-0.558-1.675-1.675-1.675-2.792-0.558-0.558-1.117-1.117-1.675-1.116-1.117 0-2.792-0.558-3.908-0.559-0.558 0-1.117 0-1.117-0.558-0.558-0.558-1.117-0.558-2.233-0.558-0.558 0-0.558-0.558-1.117-0.559 1.117 1.117 1.675 2.233 2.233 3.35 0 0.558 0.558 0.558 0.559 1.117 0.558 1.117 0 1.675-1.675 1.675-1.117 0-1.117 0-1.675 0.558 0 1.117 0 1.675 0 2.792 0 0.558 0 1.117-1.117 1.675 0 0-0.558 0-0.558 0.558-0.558 0.558-0.558 1.117 0 1.675 1.675 1.117 2.792 1.675 4.466 2.233 1.675 0 1.675 1.117 2.234 2.233 0.558 1.117 0 1.675-0.559 2.792-1.117 1.117-2.233 2.233-3.35 3.35-1.675 0.558-2.792 2.233-4.466 2.233-1.117 0-2.233-0.558-2.792-1.675-0.558-2.792-0.558-5.025 0.559-7.816 0-0.558 0.558-1.117 0-1.675-5.025 0-5.025-1.117-5.025-1.675 0-1.117 0.558-1.675 0.558-2.792 0.558-1.117 0-1.675-1.675-2.233-0.558 0-1.117 0-1.675 0-0.558 0-0.558-0.558-1.675-0.558 1.117-0.558 1.675-0.558 2.792-1.117-0.558-2.233-1.117-3.908-2.792-5.025-0.558-0.558-1.117-1.117-1.116-2.233 0-1.675-1.117-2.792-1.675-3.908-1.117-1.675-3.35-2.233-5.025-2.233-1.675-0.558-2.792-0.558-4.467-1.117-1.675-0.558-3.35-2.233-5.024-2.792-0.558-0.558-1.117-1.117-2.234-1.674-2.233-1.117-3.908-2.792-5.583-4.467-1.117-0.558-1.675-1.675-2.791-2.233-1.117-1.117-1.675-2.233-2.792-2.792-1.117-1.117-2.233-2.233-3.908-3.35-1.675-1.117-2.792-2.792-4.467-4.466-1.117-1.675-2.792-2.792-4.466-3.908-0.558 0-1.117 0-1.675 0-0.558 0-1.117 0.558-1.675 0.558-1.675 0.558-2.792 1.675-4.467 2.233 0.558-0.558 0.558-0.558 0-1.675-0.558-0.558-1.117-1.117-1.674-1.116-1.117 0-2.233 0-3.35 0-2.233 0-4.467 0.558-6.7 0.558-1.675 0-3.908 0.558-5.583 1.117 0.558 1.117 0.558 1.675 1.116 2.791-1.117 0.558-2.233 0.558-3.35 0.558-0.558 0-1.675 0.558-2.233 1.117-0.558 0-0.558 0.558-1.116 0-1.117-0.558-2.233 0-3.35 0.558h-0.559c0 0 0-0.558 0.559-0.558 0.558-0.558 1.117-1.117 1.675-1.675 0.558-0.558 1.117-0.558 2.233-1.117-0.558-0.558-0.558-1.117-0.558-1.116-0.558-0.558-1.117-0.558-1.675 0-0.558 0.558-1.117 1.117-1.675 1.675-0.558 0.558-1.117 0.558-1.675 0-0.558-0.558-0.558-1.117 0-1.675 0-0.558 0.558-1.117 1.116-1.675 0.558-0.558 0.558-1.117 1.117-1.675-1.117-1.117-1.675-2.233-2.792-2.792-1.675-1.117-3.35-2.792-4.466-4.466-1.117-2.233-2.792-3.908-5.025-5.025-0.558-0.558-1.117-1.117-1.675-1.675-0.558-0.558-0.558-0.558-1.116-1.117-1.675 0.558-2.792 1.675-4.467 2.234-0.558 0-0.558 0.558-1.117 1.116-0.558 1.117-1.675 1.117-2.791 1.117-0.558 0-1.117-0.558-0.558-1.117 0.558-1.117 1.117-2.233 2.791-1.675 0 0 0.558 0 0.558-0.558 1.117-1.117 2.233-2.792 3.909-3.908-0.558-1.675-1.675-2.792-2.234-3.908-0.558-0.558-0.558-1.117-0.558-2.234 0-0.558 0-0.558-0.558-1.116 0 0-0.558 0-1.117 0.558-0.558 0.558-1.675 1.117-2.791 0 0-0.558 0-1.117 0.558-1.675l0.558-0.558c1.675-0.558 1.675-2.233 1.675-3.908v-0.559c-0.558-1.117-0.558-1.675 0.558-2.791 1.675-1.117 3.35-3.35 3.909-5.025 0.558-1.117 1.675-1.675 2.791-2.792 1.117-1.117 2.233-2.233 2.792-3.908h0.558c2.233 0.558 2.792-1.117 3.908-2.791 0-0.558 0-1.117 0.559-1.117 1.117-1.117 1.117-2.233 0.558-3.908 0-0.558-0.558-1.675-0.558-2.233 0-0.558 0-0.558-0.559-1.117-1.675-1.117-1.675-2.233 0-3.35 1.117-0.558 1.117-1.675 1.675-2.233 0.558-1.117 0.558-2.233 0.559-3.908-0.558-1.675-0.558-3.908-1.117-5.583-0.558-2.233-1.117-5.025-1.675-7.259 0-0.558 0-0.558 0-1.116 0-1.675 0-2.792-0.558-4.467-0.558-0.558-0.558-1.675-0.559-2.233-0.558-1.675-1.117-2.792-2.791-3.35-1.675-1.117-3.908-1.675-5.583-2.791-0.558-0.558-1.117 0-1.675 0.558-0.558 1.117-1.675 2.233-2.234 3.35-0.558 0.558-1.117 1.675-1.675 2.791-1.117 1.117-3.35 2.233-5.024 0.559-0.558-1.117-1.117-1.675 0-2.792 1.117-1.675 2.233-3.35 3.908-4.466 0.558-0.558 1.117-1.675 1.675-2.234 0.558-1.117 0.558-2.233 0.558-3.35-0.558-2.233-1.117-4.467-1.117-7.258 0-2.792 0-5.025 0.559-7.816 0.558-1.117 0.558-2.792 1.116-3.908 0-0.558 0.558-1.675 1.117-2.233 1.117-1.117 2.233-2.233 2.792-3.909 0.558-1.675 1.675-3.35 1.675-5.024 0-0.558 0.558-1.117 0.558-1.675 0-0.558 0.558-1.675 0.558-2.234-0.558-1.675 0-2.792 0.558-3.908 0.558-1.117 1.117-2.792 1.675-3.908 1.117-2.233 1.117-5.025 3.35-7.258 0.558-1.117 1.117-2.233 1.675-3.35 0.558-2.233 1.675-3.908 2.792-5.583 0.558-0.558 0.558-0.558 0.558-1.117 0.558-1.675 1.675-3.35 2.792-5.025 1.117-1.675 1.117-3.35 1.675-5.024 0-0.558 0-1.117 0.558-1.675 1.675-1.675 1.117-3.908 0.558-6.142-1.117-2.792-1.675-5.583-1.116-8.374 0-0.558 0-1.117 0.558-1.117 0.558-1.117 0.558-1.675 1.117-2.792v-0.558c1.117-1.117 2.233-2.792 3.908-3.35 2.233-1.117 4.467-1.675 7.258-2.233 2.233 0 4.467-1.117 6.141-3.35 0-0.558 0.558-0.558 1.117-1.117l0.558-0.558c0.558-1.117 1.117-1.675 1.675-2.233 1.117-1.117 2.233-2.792 3.35-3.908 1.117-1.117 2.233-2.792 3.908-4.467l0.559-0.558c1.117-1.117 2.233-2.233 3.349-2.792 1.117-1.117 2.233-2.233 3.35-3.35 1.117-1.117 1.675-2.233 2.792-3.35 1.117-0.558 2.233-1.675 3.35-2.791 1.117-1.117 2.233-2.233 2.791-2.792 1.117-1.117 2.792-2.233 3.909-2.791 1.117-0.558 2.233-1.117 2.791-2.792 0.558-1.675 1.117-2.792 1.675-4.466 0-1.117 0.558-2.233 1.117-3.35 0.558 0 1.117 0 2.233-0.558-0.558-0.558-1.117-0.558-1.117-1.117 0-0.558 0.558-1.117 0.559-1.117 0-0.558 0.558-1.117 0.558-1.675 0 0 0.558 0 0.558-0.558 0 0 0.558 0 0.559-0.558-1.117 0.558-1.675 0-2.234-0.559 0.558 0.558 1.117 0.558 2.234 1.117 0 0 0.558 0 0.558-0.558 0-0.558 0-1.117 0-1.117 0 0-0.558 0-1.117 0-0.558 0-1.117 0.558-1.675 0.558zM182.097 295.292c0-0.558-0.558-0.558-0.559-1.117-0.558-1.117 0-1.675 0.559-2.233 0.558-0.558 1.117-0.558 2.233-0.558 1.117 0.558 1.675 1.117 1.675 2.233 0 0.558 0 1.675 0 2.233 0.558 2.233 0.558 2.233 2.791 2.233 1.117 0 2.233 0 3.35 0 2.233-0.558 4.467-1.675 6.7-2.233 2.233-0.558 4.467-1.117 6.7-1.675 0.558 0 1.117 0 2.233 0 2.233 0.558 3.908 0 5.583-1.117 0.558-0.558 1.675-0.558 2.233-1.116 1.117-0.558 2.233-0.558 3.35-1.117 2.792-1.675 5.583-2.792 7.817-4.466 1.675-1.117 3.35-2.233 5.024-3.35 1.675-1.117 3.35-2.233 5.025-3.35 1.117-0.558 2.792-1.675 3.908-2.792 2.233-1.675 3.908-3.35 6.142-4.466 1.117-0.558 1.675-1.117 2.233-1.675 1.117-0.558 1.675-1.675 2.792-2.233 0.558-0.558 1.117-1.117 2.233-1.675 0.558-0.558 0.558-0.558 0.558-1.117 1.675-1.117 3.35-3.35 4.467-5.025 1.117-1.117 2.233-2.233 3.35-3.908 1.675-1.675 2.792-3.908 4.466-6.141 1.117-1.117 2.233-2.792 2.792-3.909 1.117-2.233 2.233-4.467 3.908-6.141v-0.558c1.117-2.233 2.233-4.467 3.35-6.7 1.675-2.792 2.792-6.141 4.466-8.933 0.558-1.117 1.117-2.233 1.117-3.35 1.117-2.233 1.675-4.467 2.233-6.7 0-0.558 0-0.558 0.559-1.116 1.675-3.35 2.792-6.7 3.349-10.608 0.558-2.233 1.117-4.467 1.675-6.7 1.117-3.35 1.117-6.141 1.675-9.491 0.558-2.233 0.558-5.025 0.559-7.258 0.558-3.35 0.558-7.258 0-10.608 0-2.792-0.558-6.141-0.559-8.933 0-2.792-0.558-5.025-1.116-7.817-0.558-2.792-1.117-5.025-1.675-7.816-1.117-2.233-1.675-4.467-2.234-7.258-0.558-2.233-1.675-3.908-1.674-6.142 0-1.675-0.558-3.35-2.234-3.908-1.675-0.558-2.792-1.117-4.466-2.233-3.35-2.233-5.025-5.025-4.467-8.375 0-1.675 0.558-3.908 1.117-5.583 0.558-1.675 1.117-3.35 0-4.467-0.558-1.675-1.675-2.792-2.233-3.908-1.117-1.675-1.675-2.792-2.792-3.908-1.117-2.233-2.233-4.467-3.908-6.141-2.233-2.792-3.908-5.583-6.7-7.817l-0.558-0.558c-1.675-2.233-3.35-4.467-5.583-6.142-1.117-1.117-2.233-2.233-3.35-2.791-0.558-0.558-1.117-1.117-2.233-1.675-1.675-1.117-3.35-1.675-4.467-2.792-1.675-1.675-3.908-2.792-5.583-3.908 0 0-0.558 0-0.558-0.558-2.233-1.117-3.908-1.675-6.142-2.792-2.233-1.117-4.467-1.675-6.7-1.675-0.558 0-0.558 0-1.116 0-0.558-0.558-1.675-0.558-2.233-0.558-0.558 0-0.558 0-1.117 0-1.117-0.558-2.792 0-3.908 0-2.233 0.558-4.467 0.558-6.7-0.558-2.792-1.117-5.025-2.233-7.258-3.35-1.675-1.117-2.792-2.233-4.467-3.35-3.35-2.792-6.7-6.141-10.608-8.933 0.558-2.792-0.558-3.35-2.791-3.35-1.117 0-2.233 0.558-3.35 1.117-0.558 0.558-0.558 0.558-1.117 1.116-1.675 1.117-2.792 2.792-4.466 3.909-2.792 1.675-3.908 1.117-6.142 0-0.558-0.558-1.117-1.117-1.675-1.675-1.117-1.117-2.233-2.792-2.791-3.909-1.117-2.233-3.35-2.233-5.583-2.233-1.117 0-2.792 0.558-3.908 0.558-2.233 0-4.467 1.117-5.584 2.792-1.117 1.675-2.233 3.35-3.908 5.025-0.558 0.558-1.675 1.117-2.233 2.233-1.117 1.117-2.233 1.117-3.35 0-0.558-0.558-1.117-0.558-1.675-1.117-0.558 0.558-1.117 1.117-1.117 1.675-0.558 1.117-1.117 2.233-1.674 3.909-0.558 1.675-1.675 3.35-2.792 4.466-0.558 0.558-0.558 0.558-1.117 1.117-0.558 1.117-2.233 1.675-3.35 1.675-1.117 1.117-2.233 2.792-2.791 3.908-0.558 1.117-1.117 2.233-1.675 3.908-0.558 0.558-0.558 1.675-1.117 2.233-0.558 1.117-0.558 1.675-0.558 2.792 0.558 1.675-0.558 2.233-2.233 2.791-1.117 0-1.117 0-1.675 1.117 0 1.675 0.558 2.792 1.116 4.467 0.558 0.558 1.117 1.675 1.117 2.233 0 1.117 0.558 1.675 1.675 2.233 0.558 0.558 1.117 1.117 1.675 1.117 0.558 0 0.558 0.558 1.117 0.558 0.558 0.558 1.117 0 1.116-0.558 0.558-1.675 1.117-3.35 1.117-5.025 0.558-2.233 0.558-3.908 1.116-6.142 0.558-1.117 1.117-1.675 1.675-2.233 0 0 0.558 0 1.117 0v0.559c-0.558 2.792-1.675 6.141-2.233 8.933-0.558 1.117-0.558 2.233-1.117 3.349 0 0.558-0.558 1.117-1.116 1.117-1.117 0.558-2.233 1.117-3.35 1.117-0.558 0-1.117 0-1.675 0-1.117-0.558-2.233-1.675-3.35-2.234-0.558-0.558-1.117-1.117-1.675-1.674-0.558-1.117-1.117-2.233-1.675-3.35-0.558-1.117-1.117-1.675-2.233-2.234-0.558-0.558-1.117-0.558-1.675-1.116-1.117-1.117-2.233-1.675-3.908-1.675-0.558 0-1.675 0-2.234 0-0.558 0-1.675 0.558-2.233 1.116-1.117 0.558-1.675 0.558-2.791 0-2.792-1.117-5.583-0.558-8.375 0.559-1.117 0.558-2.233 1.117-3.35 1.116-2.792 0-5.025 0-7.816 0-2.792 0-5.025-0.558-7.817-1.116-1.117 0-2.233 0-3.35 0-2.233 0.558-2.792 2.233-2.233 4.466 0.558 2.233 1.117 5.025 1.117 7.258 0 1.675 0 3.35 0 5.025 0 1.117 0 1.675 0 2.792 0 1.675-0.558 3.35-0.559 5.025-0.558 3.35-2.233 6.141-4.466 8.374-1.675 1.675-3.908 3.35-6.142 3.908-1.117 0.558-2.233 1.117-3.908 1.675-2.792 1.117-5.025 3.35-6.7 6.142-0.558 1.117-1.117 2.233-1.674 3.35-1.117 1.675-1.675 2.792-2.792 4.466-0.558 1.117-1.675 2.233-2.233 3.35-0.558 1.117-1.675 1.675-1.675 2.792-1.117 2.233-1.675 4.467-2.792 6.699-0.558 1.117-0.558 2.792-1.116 3.909-1.117 2.233-1.117 4.467-1.117 7.258 0 0.558 0 1.117 0 2.233 0 2.792-0.558 6.141-0.558 8.933 0 2.792 0 5.583 0.558 8.375 0 1.117 0 2.792 0 3.908 0 2.233 0.558 5.025 0.558 7.258 0 2.233 0 5.025 1.117 7.258v0.558c0.558 2.233 0.558 4.467 1.116 6.7 0 0.558 0 1.117 0.559 1.675 1.117 3.35 1.675 6.141 2.791 9.491 0.558 2.233 1.675 4.467 2.234 6.7 0.558 2.233 2.792 4.467 3.349 7.258v0c1.675 3.35 3.35 6.7 5.584 10.05 0.558 1.117 1.675 2.233 2.233 3.35 1.117 1.675 1.675 3.35 2.791 4.466 0.558 1.117 1.675 2.233 2.234 2.792 0.558 1.117 1.117 2.233 2.233 3.35 1.117 1.117 2.233 2.792 3.35 3.908 1.675 2.792 3.908 5.025 6.141 6.7 1.117 1.117 2.233 1.675 3.35 2.791 0.558 0.558 1.117 0.558 1.117 1.117 0.558 0.558 1.117 1.117 2.233 1.675 4.467 2.233 7.816 5.583 11.725 8.933 1.675 1.675 3.35 3.35 5.583 4.466 2.233 1.675 3.908 3.35 6.7 3.908 0 0 0.558 0 0.558 0.559 1.117 1.117 2.792 1.675 3.908 2.233 2.233 1.117 5.025 2.233 7.258 3.35 0.558 0.558 1.675 0.558 2.233 1.117 1.675 0.558 3.35 1.117 5.025 1.674 1.675 0.558 2.792 1.117 4.467 1.117h0.558c1.117 0.558 1.675 0.558 2.792 0 0.558 0 1.117 0 1.116 0.558 0 0.558 0.558 0.558 1.117 0.559 0.558 0 1.117 0 2.233 0 0.558-0.558 0.558-1.117 1.117-2.234 0.558 0.558 1.117 0.558 1.116 0.559 0.558 1.117 1.675 1.117 2.792 1.116h0.558c1.117 0 1.675 0 2.233-0.558 0-0.558 1.117-0.558 1.675-0.558 1.675 0.558 3.35 0.558 5.025 1.116 1.117 0.558 2.792 0.558 3.35-0.558 0.558-0.558 1.117-1.117 2.233-0.558 1.117 0.558 1.675 0.558 2.792 0 0.558 0 1.117 0 1.117 0 1.675 0.558 2.792 0.558 4.466 1.116 2.233 0.558 2.233 0.558 3.908-1.116 0.558-0.558 1.675-0.558 2.233 0 0.558 1.117 0.558 1.675 0.559 2.791 0.558 0 0.558 0 1.116-0.558 0-1.117 0.558-1.117 1.675-1.675 0.558 0.558 0.558 0.558 1.117 0.558 1.117 1.117 1.675 1.117 2.233-0.558 0-0.558 0-1.117 0.559-1.116 0.558 0 1.117 0.558 1.116 0.558 0.558 1.117 1.675 1.675 2.233 2.791 1.117 1.117 2.792 1.117 3.35 0 0.558-0.558 1.117-0.558 1.675-0.558 0-0.558 0-1.117 0-1.675 1.675 1.117 1.117 1.117 0.559 1.117zM89.417 34.559c1.675 0.558 2.792 0.558 3.349-0.558-1.117 0.558-2.233-0.558-3.349 0.558z" fill="#ea9937" fill-rule="nonzero" stroke="none" stroke-width="1" stroke-linecap="butt" stroke-linejoin="miter" stroke-miterlimit="10" stroke-dasharray="" stroke-dashoffset="0" font-family="none" font-weight="none" font-size="none" text-anchor="none" style="mix-blend-mode: normal" data-fill-palette-color="tertiary"></path></g><g transform="matrix(1,0,0,1,64,90)"><svg viewBox="0 0 192 180" height="180" width="192"><g><svg viewBox="0 0 192 180" height="180" width="192"><g><svg viewBox="0 0 192 180" height="180" width="192"><g><svg viewBox="0 0 192 180" height="180" width="192"><g><svg viewBox="0 0 192 180" height="180" width="192"><g transform="matrix(1,0,0,1,40.56282835497467,36.966991411008934)"><svg viewBox="0 0 110.87434329005066 106.06601717798213" height="106.06601717798213" width="110.87434329005066"><g><circle r="53" cx="55.43717164502533" cy="53.033008588991066" fill="#ffffff" data-fill-palette-color="accent"></circle><svg xmlns="http://www.w3.org/2000/svg" xmlns:xlink="http://www.w3.org/1999/xlink" version="1.1" x="16.970562748477146" y="16.970562748477146" viewBox="90.43953704833984 209.0554962158203 842.8604736328125 606.1444702148438" style="enable-background:new 0 0 1024 1024;" xml:space="preserve" height="72.12489168102783" width="76.93321779309638" class="icon-o-0" data-fill-palette-color="quaternary" id="o-0"><g fill="#ffffff" data-fill-palette-color="quaternary"><g fill="#ffffff" data-fill-palette-color="quaternary"><g fill="#ffffff" data-fill-palette-color="quaternary"><path d="M896.7 785c-19.5 0-38.9 0-58.4 0-48.5 0-97 0-145.5 0-62.8 0-125.5 0-188.3 0-62.2 0-124.4 0-186.6 0-46.6 0-93.3 0-139.9 0-13.1 0-26.3 0-39.4 0-3.1 0-6.2 0-9.3 0-0.6 0-1.3 0-1.9 0-0.5 0-1 0-1.5 0 3.3 0.1-0.6-0.3-1.2-0.4 3 0.8-0.4-0.3-1.1-0.6-3.3-1.6 1.6 1.8-1-0.8-1.1-1.3-1.2-1.2-0.1 0.1-0.5-0.7-0.9-1.4-1.3-2.2-0.2-0.4-0.4-0.8-0.6-1.2 0.7 1.6 0.8 1.5 0.2-0.1-0.1-0.4-0.2-0.9-0.3-1.3 0.2 1.8 0.3 1.8 0.2 0 0 0 0-0.1 0-0.1 0-0.2 0-0.5 0-0.7 0-1.2 0-2.4 0-3.7 0-5 0-10 0-15.1 0-18.5 0-37.1 0-55.6 0-58.4 0-116.8 0-175.2 0-60.7 0-121.4 0-182 0-32.8-0.1-65.7 0-98.5 0-0.6 0-1.2 0-1.8 0-0.3 0.3 1.8 0-0.7 0-0.2 0-0.5 0-0.7-0.3 1.8-0.3 1.8 0.1 0 0.1-0.4 0.2-0.8 0.4-1.3-0.8 1.5-0.8 1.5 0 0 0.3-0.6 2.8-3.5 0.6-1.2 0.4-0.4 3.5-2.9 0.8-1 1-0.7 2.2-1.4 3.3-1.9-3.1 1.3 0.9 0 1.4-0.1-2.1 0.4-1.5 0.1 0.1 0.2 1.4 0.1 2.9 0 4.4 0 10.1 0 20.2 0 30.3 0 42.9 0 85.7 0 128.6 0 60.7 0 121.4 0 182 0 63.4 0 126.7 0 190.1 0 52 0 103.9 0 155.9 0 25.4 0 50.8-0.1 76.3 0 0.6 0 1.1 0 1.7 0 0 0 0.1 0 0.1 0 0 0 0 0 0 0 0.5 0 0.9 0 1.4 0-1.8-0.3-1.8-0.3 0 0.1 0.4 0.1 0.8 0.2 1.3 0.4-1.5-0.8-1.5-0.8 0 0 0.6 0.3 3.5 2.8 1.2 0.6 0.4 0.4 2.9 3.5 1 0.8 0.6 0.9 2.1 5.1 1.3 2.2 0.2 0.7 0.6 4.5 0.4 1.2 0 0 0 1.4 0 1.4 0 0 0 0.1 0 0.1 0 0.3 0 0.6 0 0.9 0 1.2 0 2.5 0 3.7 0 13.2 0 26.5 0 39.7 0 52.9 0 105.7 0 158.6 0 63.2 0 126.4 0 189.5 0 42.5 0 84.9 0 127.4 0 3.7 0 7.4 0 11.1 0 0.6 0 1.2 0 1.7 0.1 1.3-0.3 2.4 0.2 0.1-0.1 0.5-1.4 4.5-0.1 1.4-0.5 1.2-1.2 2.3-1.9 3.3 1.9-2.7-0.6 0.4-1 0.8 2.3-2.2-0.6 0.2-1.2 0.6-0.4 0.2-0.8 0.4-1.2 0.6 1.6-0.7 1.5-0.8-0.1-0.2-0.4 0.1-0.9 0.2-1.3 0.3C898.5 784.9 898.5 784.9 896.7 785c-7.8 0.2-15.4 6.7-15 15 0.4 7.9 6.6 15.3 15 15 20.7-0.6 36.4-16.8 36.6-37.4 0-3.3 0-6.5 0-9.8 0-16.2 0-32.5 0-48.7 0-56.7 0-113.5 0-170.2 0-62.7 0-125.4 0-188.1 0-36.9 0-73.7 0-110.6 0-5.1 0-10.1-1.6-15-4.9-16-19.7-25.9-36.1-26.1-7.7-0.1-15.3 0-23 0-39.9 0-79.8 0-119.7 0-59.9 0-119.9 0-179.8 0-64.7 0-129.4 0-194.1 0-54.4 0-108.9 0-163.3 0-28.3 0-56.5 0-84.8 0-2.2 0-4.3 0-6.4 0.2-19.6 1.8-33.7 17.8-33.9 37.4-0.1 10.2 0 20.3 0 30.5 0 50.5 0 100.9 0 151.4 0 64.2 0 128.4 0 192.6 0 46.1 0 92.2 0 138.3 0 11.4-1.3 23.8 3.5 34.5 6 13.5 19.7 21.1 34.2 21.2 2.7 0 5.3 0 8 0 32.7 0 65.4 0 98.1 0 56.8 0 113.6 0 170.4 0 65 0 129.9 0 194.9 0 58.1 0 116.2 0 174.3 0 36 0 71.9 0 107.9 0 4.9 0 9.8 0 14.8 0 7.8 0 15.4-6.9 15-15C911.3 791.9 905.1 785 896.7 785z" fill="#ffffff" data-fill-palette-color="quaternary"></path></g></g><g fill="#ffffff" data-fill-palette-color="quaternary"><g fill="#ffffff" data-fill-palette-color="quaternary"><path d="M514.6 667c-0.2-33.9-14.6-67.3-40.1-89.8-22.9-20.2-51.8-30.8-82.3-30.9-18.9 0-37.9 0-56.8 0-27.1 0-53.5 6.1-75.7 22.4-31.6 23.1-50.5 59.1-50.8 98.3-0.1 7.8 6.9 15.4 15 15 8.2-0.4 14.9-6.6 15-15 0-3.7 0.3-7.4 0.6-11.1 0-0.6 0.4-3 0-0.1 0.1-0.9 0.3-1.8 0.4-2.7 0.3-2 0.7-4 1.2-6 0.8-3.3 1.7-6.5 2.7-9.7 0.6-1.7 1.2-3.3 1.8-5 1-2.7 0.3-0.7 0-0.1 0.4-1 0.9-2 1.4-3 3.1-6.5 6.9-12.8 11.3-18.5-1.9 2.4 1.3-1.5 1.8-2.1 1-1.2 2-2.3 3.1-3.4 2.5-2.7 5.2-5.3 8-7.7 0.5-0.4 4.5-3.6 2.1-1.8 1.4-1.1 2.8-2.1 4.3-3.1 2.9-2 5.9-3.8 9-5.5 1.5-0.8 3.1-1.7 4.7-2.4 0.6-0.3 5.3-2.3 2.5-1.2 3.5-1.4 7.1-2.7 10.7-3.7 3.3-0.9 6.6-1.7 9.9-2.3 0.7-0.1 5.9-0.8 2.8-0.5 2.3-0.2 4.6-0.5 6.9-0.6 2.8-0.1 5.5-0.1 8.3-0.1 18.2 0 36.4 0 54.6 0 2.3 0 4.5 0 6.8 0 2 0 4 0 5.9 0.1 1.9 0.1 3.7 0.3 5.5 0.4 0.6 0 3 0.4 0.1 0 1.1 0.2 2.3 0.3 3.4 0.5 7.1 1.3 14 3.3 20.7 5.9 2.2 0.8-2-0.9 0.1 0 0.8 0.4 1.6 0.7 2.4 1.1 1.6 0.8 3.2 1.6 4.7 2.4 3.3 1.8 6.5 3.7 9.5 5.8 0.7 0.5 1.4 1 2.1 1.5 0.3 0.2 3.1 2.4 1.6 1.2-1.3-1 0.4 0.3 0.5 0.5 1 0.9 2 1.7 3 2.5 2.9 2.6 5.7 5.4 8.4 8.3 1.3 1.5 2.6 3 3.8 4.5 1.5 1.8-1.3-1.8 0.1 0.1 0.7 0.9 1.3 1.8 1.9 2.7 2.3 3.2 4.4 6.6 6.3 10 1.1 1.9 2.1 3.9 3 5.9 0.3 0.6 0.5 1.2 0.8 1.8 0.7 1.6-0.7-1.9 0.3 0.7 1.5 4 2.9 8 3.9 12.1 0.5 2 1 3.9 1.4 5.9 0.2 0.9 0.3 1.8 0.5 2.7 0.1 0.4 0.6 4 0.3 2.1-0.2-1.9 0.1 1 0.1 1.4 0.1 1.2 0.2 2.3 0.3 3.5 0.2 2.3 0.2 4.7 0.2 7 0.1 7.8 6.9 15.4 15 15C507.7 681.7 514.7 675.4 514.6 667L514.6 667z" fill="#ffffff" data-fill-palette-color="quaternary"></path></g></g><g fill="#ffffff" data-fill-palette-color="quaternary"><g fill="#ffffff" data-fill-palette-color="quaternary"><path d="M451.8 432.1c-0.3-38.1-24.2-71.4-59.6-84.8-34.5-13-76.1-1.6-99.4 26.8-24.1 29.4-28.2 71.5-8.3 104.4 19.8 32.7 58.2 49 95.6 41.8C421.6 512.3 451.5 473.9 451.8 432.1c0.1-7.8-7-15.4-15-15-8.2 0.4-14.9 6.6-15 15 0 1.9-0.1 3.7-0.2 5.5-0.1 0.9-0.2 1.8-0.2 2.7 0.1-0.6 0.5-2.9 0 0.1-0.7 3.7-1.5 7.4-2.7 11-0.5 1.5-1 2.9-1.6 4.4 1.1-2.8-0.8 1.6-1.2 2.4-1.7 3.3-3.6 6.4-5.7 9.5-0.2 0.3-1.9 2.5-0.8 1.1 1.1-1.4-0.6 0.7-0.9 1-1 1.1-2 2.3-3 3.4-1.2 1.3-2.4 2.5-3.7 3.6-0.6 0.6-1.3 1.2-1.9 1.7-0.3 0.2-3.6 2.8-1 0.9-2.6 1.9-5.3 3.7-8.2 5.3-1.5 0.9-3.1 1.6-4.7 2.4-0.6 0.3-1.2 0.6-1.8 0.8 3-1.3-1 0.3-1.3 0.4-3.1 1.1-6.4 2-9.6 2.7-0.9 0.2-1.8 0.4-2.6 0.5-0.4 0.1-3.3 0.4-1.4 0.2 1.9-0.2-1 0.1-1.4 0.1-1.1 0.1-2.3 0.2-3.4 0.2-3.7 0.1-7.4-0.1-11.1-0.4 3.2 0.3-1.9-0.4-2.7-0.5-1.8-0.4-3.5-0.8-5.2-1.2-1.7-0.5-3.4-1-5.1-1.6-0.8-0.3-1.6-0.6-2.5-0.9 2.6 1 0.5 0.2 0 0-3.3-1.6-6.6-3.3-9.7-5.4-1.3-0.8-2.5-1.7-3.7-2.6 2.4 1.7-1.3-1.1-2-1.7-2.8-2.4-5.3-5.1-7.7-7.9-0.3-0.3-2-2.5-0.9-1 1.1 1.4-0.5-0.7-0.8-1.1-1-1.4-1.9-2.9-2.8-4.4-0.8-1.3-1.5-2.6-2.2-4-0.4-0.8-0.8-1.6-1.2-2.3-0.2-0.3-1.8-4.3-0.6-1.2-1.2-3.1-2.2-6.2-3-9.5-0.4-1.7-0.8-3.5-1.1-5.3-0.1-0.4-0.4-3.3-0.2-1.4 0.2 2-0.2-2.2-0.2-2.1-0.3-3.7-0.3-7.4 0-11.1 0-0.7 0.1-1.4 0.2-2.1 0.2-2.4-0.4 2.3 0-0.1 0.3-2 0.7-4 1.2-5.9 0.8-3.4 1.9-6.8 3.2-10.1-1.1 2.9 0.8-1.7 1.2-2.4 0.8-1.6 1.6-3.1 2.5-4.6 0.9-1.5 1.8-3 2.8-4.4 0.5-0.7 1-1.4 1.5-2.1-1.6 2.2-0.3 0.4 0.1 0 2.4-2.8 4.9-5.5 7.6-7.9 0.6-0.6 1.3-1.1 2-1.7 0.3-0.3 2.5-2 1-0.9-1.3 1 0.4-0.3 0.6-0.4 0.7-0.5 1.4-1 2.1-1.5 3.1-2.1 6.3-3.8 9.7-5.4 0.4-0.2 2.9-1.3 1.2-0.6-1.7 0.7 0.9-0.3 1.3-0.5 1.7-0.6 3.3-1.2 5-1.6 1.5-0.4 3-0.8 4.5-1.2 0.9-0.2 1.8-0.4 2.6-0.5 0.4-0.1 4.7-0.6 1.4-0.3 3.5-0.3 6.9-0.5 10.4-0.4 1.8 0.1 3.7 0.2 5.5 0.4 2.4 0.2-2.3-0.4 0.1 0 1.1 0.2 2.2 0.4 3.3 0.6 3.9 0.8 7.7 2 11.5 3.3 2.7 0.9 0.7 0.2 0.1 0 1 0.4 2 0.9 3 1.4 1.8 0.9 3.5 1.8 5.2 2.8 1.7 1 3.3 2.1 4.9 3.2 0.3 0.2 2.5 1.9 1.1 0.8-1.5-1.2 1.2 1 1.5 1.3 3 2.5 5.7 5.3 8.2 8.2 0.6 0.7 1.1 1.3 1.7 2-2-2.5 0.6 0.9 0.8 1.1 1 1.4 1.9 2.9 2.8 4.4 1.1 1.9 2.1 3.8 3.1 5.8 0.4 0.8 0.7 1.6 1.1 2.4-0.9-2-0.2-0.5 0.2 0.7 1.3 3.8 2.4 7.6 3.2 11.6 0.2 0.9 0.3 1.8 0.5 2.7 0.4 2.4-0.2-3.6 0.1 0.7 0.2 2.3 0.3 4.6 0.3 6.9 0.1 7.8 6.8 15.4 15 15C444.9 446.7 451.9 440.5 451.8 432.1z" fill="#ffffff" data-fill-palette-color="quaternary"></path></g></g><g fill="#ffffff" data-fill-palette-color="quaternary"><g fill="#ffffff" data-fill-palette-color="quaternary"><path d="M560.2 444.3c26.9 0 53.7 0 80.6 0 42.9 0 85.7 0 128.6 0 9.9 0 19.7 0 29.6 0 7.8 0 15.4-6.9 15-15-0.4-8.1-6.6-15-15-15-26.9 0-53.7 0-80.6 0-42.9 0-85.7 0-128.6 0-9.9 0-19.7 0-29.6 0-7.8 0-15.4 6.9-15 15C545.5 437.4 551.8 444.3 560.2 444.3L560.2 444.3z" fill="#ffffff" data-fill-palette-color="quaternary"></path></g></g><g fill="#ffffff" data-fill-palette-color="quaternary"><g fill="#ffffff" data-fill-palette-color="quaternary"><path d="M608.3 609.7c21.4 0 42.9 0 64.3 0 34.2 0 68.4 0 102.6 0 7.9 0 15.8 0 23.7 0 7.8 0 15.4-6.9 15-15-0.4-8.1-6.6-15-15-15-21.4 0-42.9 0-64.3 0-34.2 0-68.4 0-102.6 0-7.9 0-15.8 0-23.7 0-7.8 0-15.4 6.9-15 15C593.7 602.9 599.9 609.7 608.3 609.7L608.3 609.7z" fill="#ffffff" data-fill-palette-color="quaternary"></path></g></g></g></svg></g></svg></g><path d="M26.912 66.699V66.699C26.608 67.563 26.185 68.318 25.641 68.965 25.097 69.611 24.471 70.122 23.762 70.499 23.052 70.876 22.278 71.096 21.44 71.16 20.607 71.227 19.743 71.103 18.848 70.788V70.788L8.375 67.107 9.236 64.656 19.644 68.313C20.163 68.496 20.679 68.571 21.189 68.54 21.694 68.506 22.17 68.381 22.619 68.166 23.075 67.947 23.473 67.647 23.811 67.266 24.155 66.887 24.422 66.429 24.611 65.89V65.89C24.793 65.371 24.871 64.849 24.844 64.326 24.821 63.811 24.7 63.326 24.48 62.869 24.265 62.42 23.972 62.022 23.602 61.674 23.226 61.323 22.778 61.057 22.258 60.874V60.874L11.851 57.217 12.715 54.756 23.189 58.436C24.084 58.751 24.835 59.198 25.44 59.776 26.054 60.351 26.52 61.007 26.838 61.745 27.156 62.483 27.323 63.277 27.341 64.127 27.359 64.978 27.216 65.835 26.912 66.699ZM27.784 46.89L30.843 42.052 36.927 45.899C36.892 46.662 36.72 47.488 36.41 48.375 36.1 49.263 35.693 50.105 35.189 50.902V50.902C34.462 52.052 33.63 52.97 32.692 53.658 31.755 54.345 30.764 54.814 29.718 55.064 28.669 55.319 27.602 55.343 26.516 55.135 25.432 54.937 24.377 54.513 23.35 53.864V53.864C22.211 53.144 21.301 52.286 20.62 51.289 19.936 50.284 19.477 49.216 19.242 48.085 19.003 46.96 18.982 45.82 19.178 44.665 19.375 43.509 19.798 42.418 20.447 41.391V41.391C20.887 40.696 21.436 40.026 22.095 39.382 22.757 38.733 23.433 38.234 24.125 37.886V37.886L25.23 40.069C24.984 40.196 24.732 40.359 24.474 40.557 24.217 40.763 23.968 40.983 23.727 41.215 23.483 41.453 23.255 41.702 23.044 41.961 22.833 42.22 22.647 42.476 22.488 42.729V42.729C22.041 43.435 21.75 44.206 21.615 45.039 21.481 45.873 21.506 46.69 21.691 47.49 21.873 48.296 22.203 49.059 22.683 49.778 23.166 50.492 23.794 51.094 24.569 51.583V51.583C25.275 52.03 26.022 52.322 26.808 52.457 27.603 52.591 28.389 52.578 29.166 52.417 29.937 52.253 30.67 51.931 31.366 51.453 32.058 50.979 32.652 50.35 33.149 49.564V49.564C33.344 49.256 33.544 48.872 33.748 48.412 33.958 47.956 34.112 47.488 34.211 47.009V47.009L31.443 45.258 29.66 48.077ZM28.703 30.89L30.576 29.147C30.839 29.274 31.269 29.472 31.865 29.742 32.466 30.018 33.147 30.326 33.91 30.668 34.677 31.015 35.484 31.384 36.329 31.776 37.184 32.169 37.99 32.543 38.747 32.898 39.505 33.245 40.184 33.556 40.785 33.831 41.381 34.101 41.813 34.298 42.081 34.42V34.42C42.109 34.43 42.213 34.483 42.392 34.579 42.567 34.679 42.714 34.769 42.834 34.848V34.848L42.446 34.081C42.338 33.809 42.171 33.366 41.944 32.752 41.712 32.134 41.451 31.434 41.159 30.653 40.859 29.872 40.543 29.041 40.213 28.161 39.883 27.289 39.572 26.459 39.281 25.669 38.995 24.884 38.736 24.182 38.504 23.563 38.277 22.949 38.112 22.504 38.01 22.228V22.228L39.875 20.491C39.956 20.715 40.104 21.122 40.318 21.712 40.531 22.302 40.792 23.016 41.1 23.853 41.404 24.686 41.737 25.604 42.1 26.608 42.459 27.607 42.822 28.625 43.189 29.662 43.56 30.695 43.928 31.713 44.291 32.717 44.649 33.716 44.985 34.632 45.298 35.465 45.611 36.298 45.872 37.007 46.081 37.592 46.295 38.182 46.443 38.589 46.524 38.813V38.813ZM53.523 31.671L43.454 17.771 45.542 16.258 55.611 30.159ZM60.713 9.139V9.139L60.862 11.435C60.174 11.519 59.515 11.645 58.884 11.812 58.25 11.973 57.674 12.186 57.154 12.453V12.453C56.268 12.907 55.656 13.453 55.319 14.088 54.975 14.727 54.947 15.327 55.235 15.888V15.888C55.48 16.366 55.869 16.652 56.401 16.744 56.925 16.834 57.528 16.853 58.21 16.801 58.889 16.744 59.618 16.66 60.398 16.551 61.178 16.442 61.942 16.427 62.691 16.505 63.44 16.584 64.145 16.804 64.808 17.165 65.471 17.526 66.025 18.141 66.47 19.009V19.009C66.816 19.682 67.007 20.352 67.043 21.02 67.074 21.69 66.947 22.345 66.663 22.983 66.382 23.627 65.931 24.239 65.311 24.818 64.699 25.4 63.909 25.94 62.941 26.437V26.437C62.321 26.755 61.741 27 61.203 27.172 60.661 27.338 60.156 27.459 59.688 27.535 59.217 27.605 58.791 27.641 58.411 27.642 58.031 27.643 57.703 27.636 57.427 27.621V27.621L57.41 25.101C58.135 25.132 58.894 25.07 59.688 24.917 60.473 24.76 61.146 24.538 61.707 24.25V24.25C61.99 24.105 62.321 23.89 62.698 23.607 63.075 23.325 63.407 22.998 63.694 22.626 63.99 22.258 64.198 21.857 64.318 21.422 64.438 20.988 64.383 20.546 64.153 20.097V20.097C63.944 19.69 63.659 19.396 63.298 19.215 62.931 19.038 62.511 18.933 62.039 18.899 61.569 18.871 61.062 18.885 60.516 18.941 59.971 18.998 59.41 19.054 58.835 19.11 58.26 19.167 57.69 19.205 57.126 19.226 56.566 19.252 56.028 19.208 55.513 19.091 54.995 18.969 54.529 18.765 54.113 18.478 53.688 18.188 53.332 17.763 53.044 17.202V17.202C52.778 16.682 52.618 16.116 52.564 15.502 52.519 14.891 52.604 14.28 52.821 13.669 53.043 13.055 53.404 12.471 53.902 11.917 54.407 11.359 55.076 10.867 55.909 10.44V10.44C56.411 10.182 56.925 9.971 57.452 9.805 57.978 9.639 58.467 9.508 58.917 9.411 59.361 9.318 59.746 9.247 60.072 9.199 60.396 9.16 60.609 9.14 60.713 9.139ZM71.686 22.203L65.708 6.113 68.126 5.215 74.103 21.305ZM73.646 3.714L84.557 1.417 85.064 3.823 80.826 4.715 83.855 19.105 81.332 19.636 78.303 5.246 74.152 6.12ZM91.41 17.977L89.898 0.88 92.467 0.653 93.979 17.75ZM112.068 1.848L114.637 2.064 113.135 19.942C112.94 19.646 112.555 19.157 111.979 18.476 111.398 17.788 110.734 17.003 109.989 16.121 109.238 15.232 108.44 14.302 107.596 13.332 106.752 12.355 105.954 11.429 105.202 10.553 104.457 9.671 103.803 8.887 103.241 8.2 102.68 7.514 102.308 7.026 102.125 6.738V6.738L101.731 6.085 101.737 6.845 100.789 18.125 98.199 17.908 99.704 0C99.857 0.239 100.115 0.577 100.478 1.014 100.847 1.458 101.28 1.974 101.777 2.562 102.274 3.15 102.823 3.786 103.425 4.469 104.02 5.152 104.628 5.846 105.248 6.55 105.863 7.248 106.468 7.935 107.063 8.611 107.666 9.288 108.216 9.917 108.713 10.498 109.211 11.08 109.637 11.592 109.993 12.035 110.355 12.478 110.607 12.809 110.749 13.027V13.027L111.14 13.72 111.138 12.91ZM126.206 14.969L131.628 16.807 129.316 23.624C128.566 23.769 127.723 23.796 126.787 23.702 125.852 23.609 124.938 23.412 124.045 23.109V23.109C122.756 22.672 121.668 22.079 120.78 21.329 119.892 20.579 119.203 19.725 118.715 18.768 118.221 17.808 117.947 16.776 117.894 15.672 117.832 14.572 117.997 13.446 118.387 12.296V12.296C118.82 11.02 119.44 9.934 120.249 9.038 121.066 8.137 121.996 7.44 123.04 6.946 124.077 6.45 125.181 6.162 126.35 6.082 127.52 6.002 128.68 6.157 129.83 6.547V6.547C130.609 6.811 131.389 7.188 132.17 7.677 132.956 8.168 133.6 8.708 134.101 9.299V9.299L132.238 10.885C132.056 10.677 131.839 10.47 131.586 10.265 131.325 10.064 131.053 9.874 130.771 9.694 130.482 9.512 130.187 9.349 129.885 9.204 129.584 9.06 129.292 8.94 129.009 8.844V8.844C128.217 8.575 127.4 8.474 126.558 8.538 125.716 8.603 124.928 8.82 124.193 9.187 123.452 9.553 122.789 10.053 122.202 10.688 121.621 11.325 121.184 12.078 120.89 12.945V12.945C120.621 13.737 120.513 14.531 120.566 15.327 120.622 16.131 120.82 16.892 121.158 17.609 121.499 18.32 121.983 18.958 122.612 19.522 123.235 20.083 123.986 20.513 124.866 20.812V20.812C125.212 20.929 125.632 21.033 126.127 21.124 126.62 21.221 127.111 21.261 127.6 21.245V21.245L128.652 18.143 125.493 17.071ZM146.682 31.461L146.29 34.011C146.049 34.026 145.742 34.008 145.368 33.959 144.994 33.91 144.578 33.816 144.119 33.679 143.661 33.541 143.172 33.36 142.653 33.134 142.131 32.899 141.608 32.607 141.083 32.257V32.257C139.967 31.515 139.095 30.656 138.468 29.681 137.836 28.703 137.428 27.679 137.247 26.609 137.071 25.544 137.105 24.467 137.351 23.378 137.602 22.294 138.051 21.265 138.698 20.293V20.293C139.415 19.215 140.268 18.351 141.257 17.702 142.247 17.053 143.295 16.622 144.401 16.409 145.513 16.2 146.638 16.211 147.775 16.441 148.923 16.67 150.002 17.121 151.013 17.794V17.794C151.395 18.047 151.766 18.334 152.127 18.654 152.486 18.965 152.809 19.283 153.095 19.608 153.384 19.928 153.622 20.242 153.808 20.549 153.994 20.856 154.117 21.121 154.176 21.344V21.344C153.965 21.434 153.793 21.512 153.663 21.576 153.532 21.641 153.397 21.706 153.257 21.773 153.123 21.843 152.966 21.922 152.788 22.011 152.611 22.109 152.38 22.229 152.093 22.373V22.373C151.998 22.143 151.864 21.914 151.689 21.686 151.508 21.454 151.312 21.228 151.1 21.008 150.888 20.787 150.659 20.579 150.414 20.384 150.178 20.188 149.955 20.019 149.745 19.88V19.88C148.983 19.373 148.182 19.043 147.342 18.891 146.508 18.743 145.693 18.751 144.898 18.916 144.103 19.081 143.363 19.39 142.679 19.843 141.989 20.293 141.416 20.861 140.961 21.546V21.546C140.516 22.215 140.215 22.944 140.057 23.732 139.906 24.523 139.896 25.31 140.03 26.093 140.159 26.88 140.445 27.632 140.885 28.348 141.33 29.058 141.933 29.666 142.696 30.174V30.174C143.105 30.446 143.526 30.67 143.959 30.846 144.392 31.022 144.798 31.161 145.177 31.261 145.556 31.362 145.885 31.425 146.163 31.451 146.432 31.478 146.605 31.482 146.682 31.461ZM156.342 46.062L154.548 44.239C154.615 44.061 154.718 43.806 154.857 43.474 154.995 43.142 155.153 42.758 155.33 42.323 155.517 41.888 155.718 41.415 155.933 40.906 156.149 40.396 156.376 39.865 156.615 39.313V39.313L152.369 34.998 147.425 37 145.63 35.177 163.802 28.022C163.711 28.251 163.544 28.658 163.3 29.243 163.056 29.818 162.764 30.515 162.424 31.334 162.084 32.143 161.708 33.044 161.297 34.035 160.885 35.027 160.471 36.03 160.055 37.046 159.638 38.061 159.229 39.059 158.827 40.042 158.42 41.029 158.049 41.934 157.714 42.757 157.369 43.581 157.077 44.282 156.838 44.862 156.598 45.443 156.433 45.843 156.342 46.062ZM159.15 32.237L154.545 34.115 157.547 37.166C157.767 36.642 157.978 36.142 158.179 35.665 158.389 35.188 158.578 34.75 158.746 34.353 158.918 33.95 159.066 33.6 159.191 33.3 159.315 33.001 159.418 32.765 159.499 32.592V32.592C159.509 32.564 159.561 32.461 159.656 32.283 159.752 32.115 159.844 31.963 159.935 31.828V31.828C159.803 31.921 159.647 32.008 159.468 32.092 159.289 32.184 159.183 32.232 159.15 32.237ZM158.94 49.937L157.486 47.784 171.711 38.178 174.329 42.056C174.835 42.804 175.198 43.555 175.42 44.311 175.647 45.062 175.718 45.795 175.632 46.51 175.551 47.221 175.317 47.888 174.929 48.511 174.54 49.134 173.986 49.688 173.265 50.175V50.175C172.875 50.439 172.461 50.662 172.024 50.845 171.587 51.028 171.127 51.154 170.645 51.223 170.169 51.289 169.684 51.288 169.19 51.221 168.696 51.154 168.211 50.993 167.735 50.738V50.738C167.262 51.818 166.734 53.004 166.149 54.296 165.569 55.584 165.013 56.865 164.479 58.139V58.139L162.746 55.573C162.975 55.034 163.217 54.474 163.473 53.892 163.724 53.315 163.975 52.737 164.225 52.159 164.476 51.581 164.722 51.015 164.963 50.459 165.205 49.904 165.43 49.383 165.639 48.898V48.898L165.377 48.51 164.023 46.505ZM171.16 41.685L166.044 45.14 167.359 47.087C167.712 47.61 168.096 47.987 168.509 48.221 168.923 48.454 169.331 48.583 169.732 48.608 170.128 48.637 170.505 48.591 170.864 48.469 171.22 48.356 171.525 48.215 171.778 48.044V48.044C172.025 47.877 172.265 47.651 172.497 47.366 172.739 47.083 172.915 46.751 173.027 46.371 173.144 45.988 173.169 45.567 173.1 45.109 173.036 44.647 172.832 44.16 172.486 43.649V43.649ZM165.162 60.289L181.029 53.744 182.669 57.72C183.332 59.328 183.65 60.787 183.624 62.097 183.601 63.399 183.343 64.558 182.849 65.572 182.356 66.587 181.686 67.452 180.84 68.168 180.002 68.886 179.101 69.445 178.138 69.842V69.842C176.96 70.328 175.805 70.557 174.673 70.528 173.541 70.5 172.49 70.258 171.52 69.804 170.55 69.349 169.685 68.715 168.926 67.901 168.173 67.085 167.574 66.136 167.128 65.057V65.057ZM168.418 61.735L169.257 63.769C169.606 64.616 170.056 65.349 170.606 65.97 171.148 66.586 171.765 67.064 172.458 67.403 173.156 67.74 173.915 67.915 174.732 67.93 175.547 67.938 176.405 67.756 177.307 67.384V67.384C178.271 66.987 179.04 66.476 179.615 65.851 180.194 65.217 180.608 64.533 180.858 63.798 181.113 63.061 181.211 62.306 181.151 61.534 181.1 60.765 180.93 60.031 180.641 59.332V59.332L179.711 57.077ZM17.215 124.612V124.612C16.911 123.748 16.769 122.894 16.789 122.05 16.813 121.197 16.983 120.402 17.301 119.664 17.618 118.926 18.083 118.266 18.695 117.685 19.302 117.113 20.054 116.669 20.949 116.354V116.354L31.459 112.658 32.325 115.119 21.89 118.789C21.364 118.973 20.915 119.237 20.543 119.579 20.164 119.923 19.868 120.323 19.656 120.778 19.434 121.228 19.309 121.712 19.28 122.229 19.254 122.737 19.336 123.261 19.526 123.799V123.799C19.711 124.325 19.973 124.782 20.313 125.169 20.662 125.56 21.065 125.865 21.522 126.084 21.97 126.299 22.451 126.426 22.964 126.463 23.471 126.503 23.987 126.431 24.513 126.246V126.246L34.947 122.576 35.816 125.046 25.306 128.742C24.411 129.057 23.546 129.179 22.711 129.106 21.873 129.042 21.099 128.822 20.389 128.445 19.678 128.062 19.046 127.546 18.493 126.896 17.947 126.244 17.521 125.482 17.215 124.612ZM33.327 137.519L36.399 142.373 30.308 146.228C29.628 145.873 28.953 145.366 28.284 144.705 27.611 144.039 27.021 143.305 26.513 142.503V142.503C25.786 141.353 25.312 140.208 25.092 139.066 24.878 137.922 24.881 136.82 25.099 135.763 25.318 134.706 25.751 133.728 26.401 132.83 27.05 131.932 27.891 131.157 28.923 130.504V130.504C30.056 129.787 31.225 129.333 32.432 129.143 33.63 128.95 34.792 128.992 35.918 129.27 37.046 129.538 38.09 130.008 39.05 130.681 40.01 131.354 40.816 132.206 41.469 133.238V133.238C41.909 133.934 42.281 134.719 42.584 135.596 42.882 136.476 43.043 137.301 43.067 138.071V138.071L40.613 138.14C40.603 137.863 40.562 137.563 40.49 137.239 40.417 136.924 40.325 136.606 40.215 136.283 40.105 135.96 39.978 135.647 39.834 135.345 39.69 135.044 39.536 134.764 39.373 134.506V134.506C38.926 133.799 38.354 133.206 37.659 132.728 36.963 132.249 36.212 131.919 35.406 131.738 34.6 131.557 33.767 131.53 32.906 131.659 32.054 131.79 31.241 132.1 30.467 132.59V132.59C29.754 133.041 29.166 133.594 28.701 134.249 28.24 134.911 27.918 135.625 27.736 136.392 27.552 137.168 27.527 137.973 27.662 138.807 27.793 139.635 28.109 140.445 28.61 141.235V141.235C28.805 141.544 29.064 141.891 29.386 142.276 29.714 142.657 30.073 142.996 30.464 143.29V143.29L33.232 141.539 31.443 138.712ZM45.365 139.069L47.238 140.812C47.135 141.089 46.968 141.536 46.737 142.155 46.51 142.769 46.251 143.471 45.96 144.261 45.67 145.051 45.359 145.886 45.029 146.767 44.694 147.643 44.379 148.474 44.083 149.26 43.788 150.045 43.524 150.747 43.293 151.366 43.061 151.985 42.897 152.43 42.798 152.701V152.701C42.785 152.735 42.738 152.845 42.655 153.031 42.572 153.207 42.493 153.361 42.418 153.49V153.49L43.163 153.041C43.421 152.919 43.853 152.722 44.459 152.451 45.06 152.176 45.739 151.861 46.496 151.505 47.258 151.153 48.067 150.781 48.921 150.389 49.771 149.992 50.58 149.62 51.347 149.273 52.114 148.926 52.796 148.617 53.392 148.347 53.997 148.076 54.431 147.877 54.695 147.751V147.751L56.575 149.5C56.348 149.598 55.948 149.774 55.375 150.03 54.802 150.285 54.109 150.597 53.296 150.964 52.482 151.331 51.585 151.73 50.605 152.16 49.635 152.589 48.645 153.029 47.638 153.478 46.625 153.923 45.634 154.361 44.663 154.79 43.687 155.224 42.793 155.625 41.98 155.993 41.171 156.364 40.481 156.678 39.907 156.934 39.334 157.189 38.937 157.368 38.715 157.47V157.47ZM47.705 164.231L57.803 150.29 59.899 151.809 49.801 165.749ZM71.029 158.669V158.669L69.242 160.124C68.772 159.615 68.283 159.151 67.773 158.733 67.273 158.312 66.763 157.969 66.243 157.702V157.702C65.352 157.244 64.549 157.064 63.836 157.16 63.122 157.257 62.62 157.588 62.329 158.155V158.155C62.084 158.634 62.076 159.115 62.305 159.598 62.538 160.075 62.877 160.577 63.323 161.105 63.765 161.623 64.258 162.167 64.802 162.736 65.342 163.312 65.801 163.928 66.181 164.585 66.554 165.239 66.787 165.941 66.88 166.69 66.979 167.442 66.804 168.255 66.356 169.129V169.129C66.01 169.802 65.574 170.347 65.047 170.763 64.521 171.179 63.914 171.46 63.226 171.608 62.539 171.755 61.779 171.745 60.947 171.579 60.111 171.419 59.209 171.091 58.241 170.594V170.594C57.621 170.276 57.081 169.946 56.622 169.606 56.165 169.26 55.769 168.919 55.434 168.583 55.108 168.244 54.831 167.919 54.603 167.608 54.381 167.3 54.196 167.027 54.051 166.788V166.788L56.096 165.308C56.491 165.921 56.983 166.502 57.574 167.051 58.165 167.601 58.741 168.019 59.302 168.307V168.307C59.586 168.453 59.952 168.596 60.402 168.737 60.852 168.878 61.313 168.962 61.784 168.988 62.253 169.004 62.702 168.936 63.131 168.784 63.554 168.628 63.883 168.322 64.116 167.868V167.868C64.325 167.46 64.394 167.056 64.324 166.654 64.251 166.259 64.094 165.861 63.852 165.46 63.603 165.057 63.295 164.649 62.925 164.235 62.561 163.825 62.188 163.402 61.807 162.968 61.426 162.533 61.059 162.092 60.708 161.643 60.362 161.197 60.086 160.731 59.881 160.245 59.675 159.759 59.566 159.259 59.553 158.745 59.541 158.232 59.68 157.691 59.971 157.124V157.124C60.238 156.605 60.608 156.146 61.081 155.747 61.554 155.348 62.1 155.061 62.72 154.887 63.348 154.709 64.037 154.66 64.787 154.739 65.534 154.824 66.324 155.08 67.157 155.507V155.507C67.659 155.765 68.134 156.061 68.581 156.395 69.023 156.726 69.415 157.046 69.756 157.356 70.091 157.662 70.372 157.936 70.598 158.179 70.818 158.419 70.962 158.582 71.029 158.669ZM68.211 174.958L74.21 158.823 76.636 159.725 70.637 175.86ZM78.649 160.213L89.589 162.519 89.08 164.935 84.832 164.04 81.79 178.468 79.257 177.933 82.3 163.506 78.14 162.629ZM90.492 179.771L92.017 162.624 94.595 162.854 93.07 180ZM110.004 161.652L112.583 161.436 114.083 179.374C113.834 179.109 113.369 178.685 112.687 178.102 112.006 177.526 111.222 176.863 110.333 176.111 109.444 175.359 108.499 174.572 107.498 173.75 106.504 172.928 105.562 172.144 104.674 171.399 103.786 170.66 103.008 169.996 102.339 169.406 101.671 168.816 101.223 168.397 100.996 168.149V168.149L100.488 167.572 100.62 168.321 101.566 179.631 98.966 179.848 97.465 161.89C97.656 162.101 97.97 162.394 98.408 162.771 98.846 163.147 99.358 163.584 99.946 164.081 100.54 164.577 101.192 165.116 101.899 165.696 102.6 166.27 103.315 166.853 104.044 167.445 104.765 168.031 105.48 168.61 106.187 169.184 106.894 169.751 107.541 170.28 108.128 170.77 108.722 171.26 109.231 171.694 109.656 172.071 110.087 172.448 110.39 172.733 110.566 172.924V172.924L111.068 173.552 110.932 172.754ZM124.084 166.727L129.525 164.883 131.838 171.71C131.333 172.288 130.681 172.824 129.881 173.319 129.076 173.817 128.223 174.218 127.324 174.522V174.522C126.036 174.959 124.811 175.149 123.65 175.094 122.487 175.033 121.417 174.772 120.441 174.31 119.465 173.849 118.617 173.197 117.897 172.355 117.177 171.513 116.621 170.513 116.229 169.357V169.357C115.799 168.087 115.633 166.843 115.732 165.625 115.827 164.415 116.142 163.296 116.676 162.267 117.202 161.234 117.905 160.33 118.785 159.555 119.665 158.781 120.683 158.198 121.84 157.806V157.806C122.619 157.542 123.47 157.365 124.393 157.277 125.319 157.195 126.158 157.232 126.913 157.39V157.39L126.402 159.792C126.131 159.737 125.83 159.706 125.498 159.699 125.175 159.696 124.843 159.71 124.503 159.742 124.163 159.773 123.83 159.822 123.503 159.891 123.176 159.96 122.867 160.043 122.578 160.141V160.141C121.786 160.41 121.076 160.826 120.447 161.389 119.818 161.953 119.32 162.605 118.954 163.345 118.589 164.086 118.367 164.89 118.289 165.757 118.216 166.616 118.326 167.479 118.62 168.347V168.347C118.891 169.145 119.29 169.847 119.817 170.453 120.351 171.057 120.97 171.538 121.673 171.896 122.384 172.257 123.16 172.471 124.002 172.536 124.838 172.603 125.699 172.487 126.586 172.186V172.186C126.931 172.069 127.329 171.899 127.779 171.677 128.227 171.448 128.641 171.178 129.019 170.868V170.868L127.968 167.766 124.8 168.839ZM148.177 158.731L150.39 160.082C150.307 160.305 150.172 160.582 149.985 160.913 149.795 161.238 149.548 161.586 149.243 161.955 148.939 162.325 148.579 162.707 148.165 163.102 147.746 163.492 147.274 163.861 146.749 164.21V164.21C145.627 164.956 144.492 165.43 143.345 165.635 142.194 165.833 141.09 165.81 140.034 165.563 138.978 165.316 137.998 164.867 137.095 164.216 136.183 163.563 135.404 162.75 134.758 161.777V161.777C134.038 160.693 133.57 159.569 133.355 158.405 133.142 157.232 133.151 156.095 133.383 154.993 133.62 153.887 134.067 152.849 134.722 151.88 135.383 150.907 136.219 150.085 137.231 149.413V149.413C137.612 149.159 138.02 148.928 138.455 148.719 138.881 148.508 139.302 148.332 139.718 148.191 140.129 148.054 140.51 147.956 140.861 147.897 141.211 147.848 141.505 147.84 141.742 147.874V147.874C141.74 148.099 141.745 148.286 141.758 148.437 141.767 148.583 141.775 148.733 141.782 148.887 141.789 149.042 141.802 149.217 141.82 149.412 141.842 149.613 141.865 149.876 141.89 150.202V150.202C141.638 150.194 141.37 150.229 141.087 150.306 140.799 150.377 140.515 150.47 140.233 150.586 139.947 150.696 139.667 150.826 139.393 150.977 139.12 151.118 138.879 151.258 138.669 151.398V151.398C137.9 151.908 137.283 152.521 136.818 153.237 136.353 153.952 136.043 154.708 135.887 155.505 135.736 156.298 135.737 157.102 135.888 157.918 136.036 158.728 136.337 159.476 136.793 160.162V160.162C137.241 160.836 137.798 161.399 138.463 161.849 139.135 162.296 139.858 162.612 140.635 162.797 141.412 162.982 142.218 163.009 143.054 162.876 143.886 162.737 144.684 162.414 145.447 161.908V161.908C145.856 161.636 146.225 161.335 146.556 161.004 146.886 160.673 147.171 160.352 147.41 160.042 147.65 159.731 147.838 159.455 147.972 159.214 148.103 158.968 148.172 158.807 148.177 158.731ZM163.392 148.786L161.596 150.609C161.417 150.544 161.158 150.448 160.819 150.319 160.485 150.185 160.099 150.029 159.661 149.849 159.219 149.674 158.741 149.483 158.228 149.275 157.71 149.063 157.175 148.844 156.625 148.619V148.619L152.363 152.945 154.449 157.865 152.646 159.695 145.194 141.58C145.42 141.672 145.828 141.836 146.416 142.071 147.005 142.306 147.708 142.589 148.528 142.921 149.347 143.253 150.255 143.616 151.253 144.013 152.256 144.404 153.268 144.8 154.29 145.201 155.321 145.601 156.333 145.997 157.326 146.389 158.319 146.78 159.232 147.139 160.066 147.466 160.894 147.798 161.6 148.079 162.184 148.309 162.768 148.539 163.17 148.698 163.392 148.786ZM149.489 146.187L151.445 150.77 154.456 147.713C153.929 147.501 153.423 147.296 152.938 147.098 152.458 146.904 152.015 146.724 151.611 146.558 151.206 146.393 150.853 146.25 150.551 146.13 150.245 146.006 150.007 145.906 149.838 145.833V145.833C149.805 145.819 149.704 145.766 149.534 145.673 149.355 145.58 149.199 145.488 149.067 145.395V145.395C149.157 145.53 149.248 145.689 149.338 145.872 149.429 146.045 149.479 146.15 149.489 146.187ZM167.125 143.526L165.664 145.687 151.403 136.047 154.034 132.154C154.54 131.406 155.102 130.788 155.72 130.301 156.341 129.808 156.997 129.466 157.687 129.275 158.382 129.088 159.093 129.056 159.819 129.178 160.542 129.306 161.263 129.614 161.984 130.1V130.1C162.38 130.368 162.744 130.67 163.077 131.008 163.412 131.354 163.698 131.736 163.937 132.154 164.181 132.575 164.364 133.027 164.486 133.51 164.608 133.993 164.64 134.503 164.581 135.041V135.041C165.763 135.07 167.065 135.117 168.487 135.182 169.905 135.242 171.303 135.282 172.684 135.302V135.302L170.944 137.876C170.359 137.865 169.749 137.849 169.114 137.828 168.479 137.808 167.845 137.792 167.212 137.78 166.582 137.763 165.965 137.746 165.359 137.73 164.748 137.709 164.178 137.693 163.65 137.68V137.68L163.388 138.068 162.028 140.08ZM154.876 135.246L160.007 138.714 161.328 136.759C161.681 136.237 161.889 135.74 161.951 135.27 162.011 134.789 161.98 134.36 161.859 133.982 161.733 133.6 161.547 133.266 161.3 132.979 161.057 132.687 160.812 132.457 160.564 132.289V132.289C160.317 132.122 160.015 131.982 159.658 131.869 159.306 131.751 158.93 131.714 158.532 131.757 158.138 131.795 157.739 131.93 157.334 132.161 156.93 132.392 156.554 132.764 156.209 133.275V133.275ZM174.3 131.416L158.389 124.847 160.038 120.853C160.701 119.245 161.506 117.983 162.452 117.067 163.395 116.157 164.399 115.516 165.464 115.144 166.536 114.775 167.622 114.631 168.723 114.712 169.828 114.802 170.862 115.046 171.825 115.444V115.444C173.009 115.933 173.995 116.588 174.784 117.409 175.566 118.227 176.14 119.143 176.504 120.155 176.878 121.164 177.047 122.224 177.011 123.337 176.966 124.453 176.721 125.551 176.275 126.631V126.631ZM173.005 128.081L173.849 126.038C174.198 125.192 174.397 124.354 174.444 123.527 174.498 122.701 174.395 121.923 174.137 121.192 173.885 120.463 173.475 119.805 172.906 119.218 172.33 118.629 171.592 118.148 170.69 117.776V117.776C169.721 117.375 168.807 117.196 167.95 117.237 167.099 117.28 166.323 117.473 165.622 117.816 164.926 118.161 164.325 118.627 163.816 119.214 163.308 119.801 162.91 120.444 162.621 121.144V121.144L161.686 123.408ZM14.565 93.94C14.565 92.803 15.488 91.881 16.625 91.881 17.762 91.881 18.684 92.803 18.684 93.94 18.684 95.078 17.762 96 16.625 96 15.488 96 14.565 95.078 14.565 93.94ZM175.857 93.94C175.857 92.803 176.779 91.881 177.916 91.881 179.054 91.881 179.976 92.803 179.976 93.94 179.976 95.078 179.054 96 177.916 96 176.779 96 175.857 95.078 175.857 93.94Z" fill="#ffffff" data-fill-palette-color="primary"></path></svg></g></svg></g></svg></g></svg></g></svg></g></svg></g><defs></defs></svg><rect width="320" height="360" fill="none" stroke="none" visibility="hidden"></rect></g></svg></g></svg>